<svg xmlns="http://www.w3.org/2000/svg" class="plate-svg" viewBox="0 0 440 340" preserveAspectRatio="xMidYMid meet"><rect width="440" height="340" fill="#FFF"/><rect x="40" y="40" width="360" height="260" fill="none" stroke="#666" stroke-width="1" rx="5"/><circle cx="78.25" cy="109.25" r="16.25" fill="white" stroke="#333" stroke-width="2" class="svg-well" data-label="A1"/><text x="78.25" y="109.25" class="svg-well-label"/><circle cx="118.75" cy="109.25" r="16.25" fill="white" stroke="#333" stroke-width="2" class="svg-well" data-label="A2"/><text x="118.75" y="109.25" class="svg-well-label"/><circle cx="159.25" cy="109.25" r="16.25" fill="white" stroke="#333" stroke-width="2" class="svg-well" data-label="A3"/><text x="159.25" y="109.25" class="svg-well-label"/><circle cx="199.75" cy="109.25" r="16.25" fill="white" stroke="#333" stroke-width="2" class="svg-well" data-label="A4"/><text x="199.75" y="109.25" class="svg-well-label"/><circle cx="240.25" cy="109.25" r="16.25" fill="white" stroke="#333" stroke-width="2" class="svg-well" data-label="A5"/><text x="240.25" y="109.25" class="svg-well-label"/><circle cx="280.75" cy="109.25" r="16.25" fill="white" stroke="#333" stroke-width="2" class="svg-well" data-label="A6"/><text x="280.75" y="109.25" class="svg-well-label"/><circle cx="321.25" cy="109.25" r="16.25" fill="white" stroke="#333" stroke-width="2" class="svg-well" data-label="A7"/><text x="321.25" y="109.25" class="svg-well-label"/><circle cx="361.75" cy="109.25" r="16.25" fill="white" stroke="#333" stroke-width="2" class="svg-well" data-label="A8"/><text x="361.75" y="109.25" class="svg-well-label"/><circle cx="78.25" cy="149.75" r="16.25" fill="white" stroke="#333" stroke-width="2" class="svg-well" data-label="B1"/><text x="78.25" y="149.75" class="svg-well-label"/><circle cx="118.75" cy="149.75" r="16.25" fill="white" stroke="#333" stroke-width="2" class="svg-well" data-label="B2"/><text x="118.75" y="149.75" class="svg-well-label"/><circle cx="159.25" cy="149.75" r="16.25" fill="white" stroke="#333" stroke-width="2" class="svg-well" data-label="B3"/><text x="159.25" y="149.75" class="svg-well-label"/><circle cx="199.75" cy="149.75" r="16.25" fill="white" stroke="#333" stroke-width="2" class="svg-well" data-label="B4"/><text x="199.75" y="149.75" class="svg-well-label"/><circle cx="240.25" cy="149.75" r="16.25" fill="white" stroke="#333" stroke-width="2" class="svg-well" data-label="B5"/><text x="240.25" y="149.75" class="svg-well-label"/><circle cx="280.75" cy="149.75" r="16.25" fill="white" stroke="#333" stroke-width="2" class="svg-well" data-label="B6"/><text x="280.75" y="149.75" class="svg-well-label"/><circle cx="321.25" cy="149.75" r="16.25" fill="white" stroke="#333" stroke-width="2" class="svg-well" data-label="B7"/><text x="321.25" y="149.75" class="svg-well-label"/><circle cx="361.75" cy="149.75" r="16.25" fill="white" stroke="#333" stroke-width="2" class="svg-well" data-label="B8"/><text x="361.75" y="149.75" class="svg-well-label"/><circle cx="78.25" cy="190.25" r="16.25" fill="white" stroke="#333" stroke-width="2" class="svg-well" data-label="C1"/><text x="78.25" y="190.25" class="svg-well-label"/><circle cx="118.75" cy="190.25" r="16.25" fill="white" stroke="#333" stroke-width="2" class="svg-well" data-label="C2"/><text x="118.75" y="190.25" class="svg-well-label"/><circle cx="159.25" cy="190.25" r="16.25" fill="white" stroke="#333" stroke-width="2" class="svg-well" data-label="C3"/><text x="159.25" y="190.25" class="svg-well-label"/><circle cx="199.75" cy="190.25" r="16.25" fill="white" stroke="#333" stroke-width="2" class="svg-well" data-label="C4"/><text x="199.75" y="190.25" class="svg-well-label"/><circle cx="240.25" cy="190.25" r="16.25" fill="white" stroke="#333" stroke-width="2" class="svg-well" data-label="C5"/><text x="240.25" y="190.25" class="svg-well-label"/><circle cx="280.75" cy="190.25" r="16.25" fill="white" stroke="#333" stroke-width="2" class="svg-well" data-label="C6"/><text x="280.75" y="190.25" class="svg-well-label"/><circle cx="321.25" cy="190.25" r="16.25" fill="white" stroke="#333" stroke-width="2" class="svg-well" data-label="C7"/><text x="321.25" y="190.25" class="svg-well-label"/><circle cx="361.75" cy="190.25" r="16.25" fill="white" stroke="#333" stroke-width="2" class="svg-well" data-label="C8"/><text x="361.75" y="190.25" class="svg-well-label"/><circle cx="78.25" cy="230.75" r="16.25" fill="white" stroke="#333" stroke-width="2" class="svg-well" data-label="D1"/><text x="78.25" y="230.75" class="svg-well-label"/><circle cx="118.75" cy="230.75" r="16.25" fill="white" stroke="#333" stroke-width="2" class="svg-well" data-label="D2"/><text x="118.75" y="230.75" class="svg-well-label"/><circle cx="159.25" cy="230.75" r="16.25" fill="white" stroke="#333" stroke-width="2" class="svg-well" data-label="D3"/><text x="159.25" y="230.75" class="svg-well-label"/><circle cx="199.75" cy="230.75" r="16.25" fill="white" stroke="#333" stroke-width="2" class="svg-well" data-label="D4"/><text x="199.75" y="230.75" class="svg-well-label"/><circle cx="240.25" cy="230.75" r="16.25" fill="white" stroke="#333" stroke-width="2" class="svg-well" data-label="D5"/><text x="240.25" y="230.75" class="svg-well-label"/><circle cx="280.75" cy="230.75" r="16.25" fill="white" stroke="#333" stroke-width="2" class="svg-well" data-label="D6"/><text x="280.75" y="230.75" class="svg-well-label"/><circle cx="321.25" cy="230.75" r="16.25" fill="white" stroke="#333" stroke-width="2" class="svg-well" data-label="D7"/><text x="321.25" y="230.75" class="svg-well-label"/><circle cx="361.75" cy="230.75" r="16.25" fill="white" stroke="#333" stroke-width="2" class="svg-well" data-label="D8"/><text x="361.75" y="230.75" class="svg-well-label"/><text x="78.25" y="86" text-anchor="middle" font-size="12" font-weight="bold" fill="#333" class="plate-label">1</text><text x="118.75" y="86" text-anchor="middle" font-size="12" font-weight="bold" fill="#333" class="plate-label">2</text><text x="159.25" y="86" text-anchor="middle" font-size="12" font-weight="bold" fill="#333" class="plate-label">3</text><text x="199.75" y="86" text-anchor="middle" font-size="12" font-weight="bold" fill="#333" class="plate-label">4</text><text x="240.25" y="86" text-anchor="middle" font-size="12" font-weight="bold" fill="#333" class="plate-label">5</text><text x="280.75" y="86" text-anchor="middle" font-size="12" font-weight="bold" fill="#333" class="plate-label">6</text><text x="321.25" y="86" text-anchor="middle" font-size="12" font-weight="bold" fill="#333" class="plate-label">7</text><text x="361.75" y="86" text-anchor="middle" font-size="12" font-weight="bold" fill="#333" class="plate-label">8</text><text x="48" y="109.25" text-anchor="middle" dominant-baseline="middle" font-size="12" font-weight="bold" fill="#333" class="plate-label">A</text><text x="48" y="149.75" text-anchor="middle" dominant-baseline="middle" font-size="12" font-weight="bold" fill="#333" class="plate-label">B</text><text x="48" y="190.25" text-anchor="middle" dominant-baseline="middle" font-size="12" font-weight="bold" fill="#333" class="plate-label">C</text><text x="48" y="230.75" text-anchor="middle" dominant-baseline="middle" font-size="12" font-weight="bold" fill="#333" class="plate-label">D</text></svg>