<svg xmlns="http://www.w3.org/2000/svg" class="plate-svg" viewBox="0 0 440 340" preserveAspectRatio="xMidYMid meet"><rect width="440" height="340" fill="#FFF"/><rect x="40" y="40" width="360" height="260" fill="none" stroke="#666" stroke-width="1" rx="5"/><circle cx="85" cy="89" r="23" fill="white" stroke="#333" stroke-width="2" class="svg-well" data-label="A1"/><text x="85" y="89" class="svg-well-label"/><circle cx="139" cy="89" r="23" fill="white" stroke="#333" stroke-width="2" class="svg-well" data-label="A2"/><text x="139" y="89" class="svg-well-label"/><circle cx="193" cy="89" r="23" fill="white" stroke="#333" stroke-width="2" class="svg-well" data-label="A3"/><text x="193" y="89" class="svg-well-label"/><circle cx="247" cy="89" r="23" fill="white" stroke="#333" stroke-width="2" class="svg-well" data-label="A4"/><text x="247" y="89" class="svg-well-label"/><circle cx="301" cy="89" r="23" fill="white" stroke="#333" stroke-width="2" class="svg-well" data-label="A5"/><text x="301" y="89" class="svg-well-label"/><circle cx="355" cy="89" r="23" fill="white" stroke="#333" stroke-width="2" class="svg-well" data-label="A6"/><text x="355" y="89" class="svg-well-label"/><circle cx="85" cy="143" r="23" fill="white" stroke="#333" stroke-width="2" class="svg-well" data-label="B1"/><text x="85" y="143" class="svg-well-label"/><circle cx="139" cy="143" r="23" fill="white" stroke="#333" stroke-width="2" class="svg-well" data-label="B2"/><text x="139" y="143" class="svg-well-label"/><circle cx="193" cy="143" r="23" fill="white" stroke="#333" stroke-width="2" class="svg-well" data-label="B3"/><text x="193" y="143" class="svg-well-label"/><circle cx="247" cy="143" r="23" fill="white" stroke="#333" stroke-width="2" class="svg-well" data-label="B4"/><text x="247" y="143" class="svg-well-label"/><circle cx="301" cy="143" r="23" fill="white" stroke="#333" stroke-width="2" class="svg-well" data-label="B5"/><text x="301" y="143" class="svg-well-label"/><circle cx="355" cy="143" r="23" fill="white" stroke="#333" stroke-width="2" class="svg-well" data-label="B6"/><text x="355" y="143" class="svg-well-label"/><circle cx="85" cy="197" r="23" fill="white" stroke="#333" stroke-width="2" class="svg-well" data-label="C1"/><text x="85" y="197" class="svg-well-label"/><circle cx="139" cy="197" r="23" fill="white" stroke="#333" stroke-width="2" class="svg-well" data-label="C2"/><text x="139" y="197" class="svg-well-label"/><circle cx="193" cy="197" r="23" fill="white" stroke="#333" stroke-width="2" class="svg-well" data-label="C3"/><text x="193" y="197" class="svg-well-label"/><circle cx="247" cy="197" r="23" fill="white" stroke="#333" stroke-width="2" class="svg-well" data-label="C4"/><text x="247" y="197" class="svg-well-label"/><circle cx="301" cy="197" r="23" fill="white" stroke="#333" stroke-width="2" class="svg-well" data-label="C5"/><text x="301" y="197" class="svg-well-label"/><circle cx="355" cy="197" r="23" fill="white" stroke="#333" stroke-width="2" class="svg-well" data-label="C6"/><text x="355" y="197" class="svg-well-label"/><circle cx="85" cy="251" r="23" fill="white" stroke="#333" stroke-width="2" class="svg-well" data-label="D1"/><text x="85" y="251" class="svg-well-label"/><circle cx="139" cy="251" r="23" fill="white" stroke="#333" stroke-width="2" class="svg-well" data-label="D2"/><text x="139" y="251" class="svg-well-label"/><circle cx="193" cy="251" r="23" fill="white" stroke="#333" stroke-width="2" class="svg-well" data-label="D3"/><text x="193" y="251" class="svg-well-label"/><circle cx="247" cy="251" r="23" fill="white" stroke="#333" stroke-width="2" class="svg-well" data-label="D4"/><text x="247" y="251" class="svg-well-label"/><circle cx="301" cy="251" r="23" fill="white" stroke="#333" stroke-width="2" class="svg-well" data-label="D5"/><text x="301" y="251" class="svg-well-label"/><circle cx="355" cy="251" r="23" fill="white" stroke="#333" stroke-width="2" class="svg-well" data-label="D6"/><text x="355" y="251" class="svg-well-label"/><text x="85" y="56" text-anchor="middle" font-size="12" font-weight="bold" fill="#333" class="plate-label">1</text><text x="139" y="56" text-anchor="middle" font-size="12" font-weight="bold" fill="#333" class="plate-label">2</text><text x="193" y="56" text-anchor="middle" font-size="12" font-weight="bold" fill="#333" class="plate-label">3</text><text x="247" y="56" text-anchor="middle" font-size="12" font-weight="bold" fill="#333" class="plate-label">4</text><text x="301" y="56" text-anchor="middle" font-size="12" font-weight="bold" fill="#333" class="plate-label">5</text><text x="355" y="56" text-anchor="middle" font-size="12" font-weight="bold" fill="#333" class="plate-label">6</text><text x="52" y="89" text-anchor="middle" dominant-baseline="middle" font-size="12" font-weight="bold" fill="#333" class="plate-label">A</text><text x="52" y="143" text-anchor="middle" dominant-baseline="middle" font-size="12" font-weight="bold" fill="#333" class="plate-label">B</text><text x="52" y="197" text-anchor="middle" dominant-baseline="middle" font-size="12" font-weight="bold" fill="#333" class="plate-label">C</text><text x="52" y="251" text-anchor="middle" dominant-baseline="middle" font-size="12" font-weight="bold" fill="#333" class="plate-label">D</text></svg>