<svg xmlns="http://www.w3.org/2000/svg" class="plate-svg" viewBox="0 0 440 340" preserveAspectRatio="xMidYMid meet"><rect width="440" height="340" fill="#FFF"/><rect x="40" y="40" width="360" height="260" fill="none" stroke="#666" stroke-width="1" rx="5"/><rect x="72.66666666666666" y="60" width="33.333333333333336" height="33.333333333333336" fill="white" stroke="#333" stroke-width="2" rx="3" class="svg-well" data-label="A1"/><text x="89.33333333333333" y="76.66666666666667" class="svg-well-label"/><rect x="110" y="60" width="33.333333333333336" height="33.333333333333336" fill="white" stroke="#333" stroke-width="2" rx="3" class="svg-well" data-label="A2"/><text x="126.66666666666667" y="76.66666666666667" class="svg-well-label"/><rect x="147.33333333333331" y="60" width="33.333333333333336" height="33.333333333333336" fill="white" stroke="#333" stroke-width="2" rx="3" class="svg-well" data-label="A3"/><text x="163.99999999999997" y="76.66666666666667" class="svg-well-label"/><rect x="184.66666666666666" y="60" width="33.333333333333336" height="33.333333333333336" fill="white" stroke="#333" stroke-width="2" rx="3" class="svg-well" data-label="A4"/><text x="201.33333333333331" y="76.66666666666667" class="svg-well-label"/><rect x="222" y="60" width="33.333333333333336" height="33.333333333333336" fill="white" stroke="#333" stroke-width="2" rx="3" class="svg-well" data-label="A5"/><text x="238.66666666666666" y="76.66666666666667" class="svg-well-label"/><rect x="259.33333333333337" y="60" width="33.333333333333336" height="33.333333333333336" fill="white" stroke="#333" stroke-width="2" rx="3" class="svg-well" data-label="A6"/><text x="276.00000000000006" y="76.66666666666667" class="svg-well-label"/><rect x="296.66666666666663" y="60" width="33.333333333333336" height="33.333333333333336" fill="white" stroke="#333" stroke-width="2" rx="3" class="svg-well" data-label="A7"/><text x="313.3333333333333" y="76.66666666666667" class="svg-well-label"/><rect x="334" y="60" width="33.333333333333336" height="33.333333333333336" fill="white" stroke="#333" stroke-width="2" rx="3" class="svg-well" data-label="A8"/><text x="350.6666666666667" y="76.66666666666667" class="svg-well-label"/><rect x="72.66666666666666" y="97.33333333333334" width="33.333333333333336" height="33.333333333333336" fill="white" stroke="#333" stroke-width="2" rx="3" class="svg-well" data-label="B1"/><text x="89.33333333333333" y="114.00000000000001" class="svg-well-label"/><rect x="110" y="97.33333333333334" width="33.333333333333336" height="33.333333333333336" fill="white" stroke="#333" stroke-width="2" rx="3" class="svg-well" data-label="B2"/><text x="126.66666666666667" y="114.00000000000001" class="svg-well-label"/><rect x="147.33333333333331" y="97.33333333333334" width="33.333333333333336" height="33.333333333333336" fill="white" stroke="#333" stroke-width="2" rx="3" class="svg-well" data-label="B3"/><text x="163.99999999999997" y="114.00000000000001" class="svg-well-label"/><rect x="184.66666666666666" y="97.33333333333334" width="33.333333333333336" height="33.333333333333336" fill="white" stroke="#333" stroke-width="2" rx="3" class="svg-well" data-label="B4"/><text x="201.33333333333331" y="114.00000000000001" class="svg-well-label"/><rect x="222" y="97.33333333333334" width="33.333333333333336" height="33.333333333333336" fill="white" stroke="#333" stroke-width="2" rx="3" class="svg-well" data-label="B5"/><text x="238.66666666666666" y="114.00000000000001" class="svg-well-label"/><rect x="259.33333333333337" y="97.33333333333334" width="33.333333333333336" height="33.333333333333336" fill="white" stroke="#333" stroke-width="2" rx="3" class="svg-well" data-label="B6"/><text x="276.00000000000006" y="114.00000000000001" class="svg-well-label"/><rect x="296.66666666666663" y="97.33333333333334" width="33.333333333333336" height="33.333333333333336" fill="white" stroke="#333" stroke-width="2" rx="3" class="svg-well" data-label="B7"/><text x="313.3333333333333" y="114.00000000000001" class="svg-well-label"/><rect x="334" y="97.33333333333334" width="33.333333333333336" height="33.333333333333336" fill="white" stroke="#333" stroke-width="2" rx="3" class="svg-well" data-label="B8"/><text x="350.6666666666667" y="114.00000000000001" class="svg-well-label"/><rect x="72.66666666666666" y="134.66666666666669" width="33.333333333333336" height="33.333333333333336" fill="white" stroke="#333" stroke-width="2" rx="3" class="svg-well" data-label="C1"/><text x="89.33333333333333" y="151.33333333333334" class="svg-well-label"/><rect x="110" y="134.66666666666669" width="33.333333333333336" height="33.333333333333336" fill="white" stroke="#333" stroke-width="2" rx="3" class="svg-well" data-label="C2"/><text x="126.66666666666667" y="151.33333333333334" class="svg-well-label"/><rect x="147.33333333333331" y="134.66666666666669" width="33.333333333333336" height="33.333333333333336" fill="white" stroke="#333" stroke-width="2" rx="3" class="svg-well" data-label="C3"/><text x="163.99999999999997" y="151.33333333333334" class="svg-well-label"/><rect x="184.66666666666666" y="134.66666666666669" width="33.333333333333336" height="33.333333333333336" fill="white" stroke="#333" stroke-width="2" rx="3" class="svg-well" data-label="C4"/><text x="201.33333333333331" y="151.33333333333334" class="svg-well-label"/><rect x="222" y="134.66666666666669" width="33.333333333333336" height="33.333333333333336" fill="white" stroke="#333" stroke-width="2" rx="3" class="svg-well" data-label="C5"/><text x="238.66666666666666" y="151.33333333333334" class="svg-well-label"/><rect x="259.33333333333337" y="134.66666666666669" width="33.333333333333336" height="33.333333333333336" fill="white" stroke="#333" stroke-width="2" rx="3" class="svg-well" data-label="C6"/><text x="276.00000000000006" y="151.33333333333334" class="svg-well-label"/><rect x="296.66666666666663" y="134.66666666666669" width="33.333333333333336" height="33.333333333333336" fill="white" stroke="#333" stroke-width="2" rx="3" class="svg-well" data-label="C7"/><text x="313.3333333333333" y="151.33333333333334" class="svg-well-label"/><rect x="334" y="134.66666666666669" width="33.333333333333336" height="33.333333333333336" fill="white" stroke="#333" stroke-width="2" rx="3" class="svg-well" data-label="C8"/><text x="350.6666666666667" y="151.33333333333334" class="svg-well-label"/><rect x="72.66666666666666" y="172" width="33.333333333333336" height="33.333333333333336" fill="white" stroke="#333" stroke-width="2" rx="3" class="svg-well" data-label="D1"/><text x="89.33333333333333" y="188.66666666666666" class="svg-well-label"/><rect x="110" y="172" width="33.333333333333336" height="33.333333333333336" fill="white" stroke="#333" stroke-width="2" rx="3" class="svg-well" data-label="D2"/><text x="126.66666666666667" y="188.66666666666666" class="svg-well-label"/><rect x="147.33333333333331" y="172" width="33.333333333333336" height="33.333333333333336" fill="white" stroke="#333" stroke-width="2" rx="3" class="svg-well" data-label="D3"/><text x="163.99999999999997" y="188.66666666666666" class="svg-well-label"/><rect x="184.66666666666666" y="172" width="33.333333333333336" height="33.333333333333336" fill="white" stroke="#333" stroke-width="2" rx="3" class="svg-well" data-label="D4"/><text x="201.33333333333331" y="188.66666666666666" class="svg-well-label"/><rect x="222" y="172" width="33.333333333333336" height="33.333333333333336" fill="white" stroke="#333" stroke-width="2" rx="3" class="svg-well" data-label="D5"/><text x="238.66666666666666" y="188.66666666666666" class="svg-well-label"/><rect x="259.33333333333337" y="172" width="33.333333333333336" height="33.333333333333336" fill="white" stroke="#333" stroke-width="2" rx="3" class="svg-well" data-label="D6"/><text x="276.00000000000006" y="188.66666666666666" class="svg-well-label"/><rect x="296.66666666666663" y="172" width="33.333333333333336" height="33.333333333333336" fill="white" stroke="#333" stroke-width="2" rx="3" class="svg-well" data-label="D7"/><text x="313.3333333333333" y="188.66666666666666" class="svg-well-label"/><rect x="334" y="172" width="33.333333333333336" height="33.333333333333336" fill="white" stroke="#333" stroke-width="2" rx="3" class="svg-well" data-label="D8"/><text x="350.6666666666667" y="188.66666666666666" class="svg-well-label"/><rect x="72.66666666666666" y="209.33333333333334" width="33.333333333333336" height="33.333333333333336" fill="white" stroke="#333" stroke-width="2" rx="3" class="svg-well" data-label="E1"/><text x="89.33333333333333" y="226" class="svg-well-label"/><rect x="110" y="209.33333333333334" width="33.333333333333336" height="33.333333333333336" fill="white" stroke="#333" stroke-width="2" rx="3" class="svg-well" data-label="E2"/><text x="126.66666666666667" y="226" class="svg-well-label"/><rect x="147.33333333333331" y="209.33333333333334" width="33.333333333333336" height="33.333333333333336" fill="white" stroke="#333" stroke-width="2" rx="3" class="svg-well" data-label="E3"/><text x="163.99999999999997" y="226" class="svg-well-label"/><rect x="184.66666666666666" y="209.33333333333334" width="33.333333333333336" height="33.333333333333336" fill="white" stroke="#333" stroke-width="2" rx="3" class="svg-well" data-label="E4"/><text x="201.33333333333331" y="226" class="svg-well-label"/><rect x="222" y="209.33333333333334" width="33.333333333333336" height="33.333333333333336" fill="white" stroke="#333" stroke-width="2" rx="3" class="svg-well" data-label="E5"/><text x="238.66666666666666" y="226" class="svg-well-label"/><rect x="259.33333333333337" y="209.33333333333334" width="33.333333333333336" height="33.333333333333336" fill="white" stroke="#333" stroke-width="2" rx="3" class="svg-well" data-label="E6"/><text x="276.00000000000006" y="226" class="svg-well-label"/><rect x="296.66666666666663" y="209.33333333333334" width="33.333333333333336" height="33.333333333333336" fill="white" stroke="#333" stroke-width="2" rx="3" class="svg-well" data-label="E7"/><text x="313.3333333333333" y="226" class="svg-well-label"/><rect x="334" y="209.33333333333334" width="33.333333333333336" height="33.333333333333336" fill="white" stroke="#333" stroke-width="2" rx="3" class="svg-well" data-label="E8"/><text x="350.6666666666667" y="226" class="svg-well-label"/><rect x="72.66666666666666" y="246.66666666666669" width="33.333333333333336" height="33.333333333333336" fill="white" stroke="#333" stroke-width="2" rx="3" class="svg-well" data-label="F1"/><text x="89.33333333333333" y="263.33333333333337" class="svg-well-label"/><rect x="110" y="246.66666666666669" width="33.333333333333336" height="33.333333333333336" fill="white" stroke="#333" stroke-width="2" rx="3" class="svg-well" data-label="F2"/><text x="126.66666666666667" y="263.33333333333337" class="svg-well-label"/><rect x="147.33333333333331" y="246.66666666666669" width="33.333333333333336" height="33.333333333333336" fill="white" stroke="#333" stroke-width="2" rx="3" class="svg-well" data-label="F3"/><text x="163.99999999999997" y="263.33333333333337" class="svg-well-label"/><rect x="184.66666666666666" y="246.66666666666669" width="33.333333333333336" height="33.333333333333336" fill="white" stroke="#333" stroke-width="2" rx="3" class="svg-well" data-label="F4"/><text x="201.33333333333331" y="263.33333333333337" class="svg-well-label"/><rect x="222" y="246.66666666666669" width="33.333333333333336" height="33.333333333333336" fill="white" stroke="#333" stroke-width="2" rx="3" class="svg-well" data-label="F5"/><text x="238.66666666666666" y="263.33333333333337" class="svg-well-label"/><rect x="259.33333333333337" y="246.66666666666669" width="33.333333333333336" height="33.333333333333336" fill="white" stroke="#333" stroke-width="2" rx="3" class="svg-well" data-label="F6"/><text x="276.00000000000006" y="263.33333333333337" class="svg-well-label"/><rect x="296.66666666666663" y="246.66666666666669" width="33.333333333333336" height="33.333333333333336" fill="white" stroke="#333" stroke-width="2" rx="3" class="svg-well" data-label="F7"/><text x="313.3333333333333" y="263.33333333333337" class="svg-well-label"/><rect x="334" y="246.66666666666669" width="33.333333333333336" height="33.333333333333336" fill="white" stroke="#333" stroke-width="2" rx="3" class="svg-well" data-label="F8"/><text x="350.6666666666667" y="263.33333333333337" class="svg-well-label"/><text x="89.33333333333333" y="55" text-anchor="middle" font-size="12" font-weight="bold" fill="#333" class="plate-label">1</text><text x="126.66666666666667" y="55" text-anchor="middle" font-size="12" font-weight="bold" fill="#333" class="plate-label">2</text><text x="163.99999999999997" y="55" text-anchor="middle" font-size="12" font-weight="bold" fill="#333" class="plate-label">3</text><text x="201.33333333333331" y="55" text-anchor="middle" font-size="12" font-weight="bold" fill="#333" class="plate-label">4</text><text x="238.66666666666666" y="55" text-anchor="middle" font-size="12" font-weight="bold" fill="#333" class="plate-label">5</text><text x="276.00000000000006" y="55" text-anchor="middle" font-size="12" font-weight="bold" fill="#333" class="plate-label">6</text><text x="313.3333333333333" y="55" text-anchor="middle" font-size="12" font-weight="bold" fill="#333" class="plate-label">7</text><text x="350.6666666666667" y="55" text-anchor="middle" font-size="12" font-weight="bold" fill="#333" class="plate-label">8</text><text x="60.66666666666666" y="76.66666666666667" text-anchor="middle" dominant-baseline="middle" font-size="12" font-weight="bold" fill="#333" class="plate-label">A</text><text x="60.66666666666666" y="114.00000000000001" text-anchor="middle" dominant-baseline="middle" font-size="12" font-weight="bold" fill="#333" class="plate-label">B</text><text x="60.66666666666666" y="151.33333333333334" text-anchor="middle" dominant-baseline="middle" font-size="12" font-weight="bold" fill="#333" class="plate-label">C</text><text x="60.66666666666666" y="188.66666666666666" text-anchor="middle" dominant-baseline="middle" font-size="12" font-weight="bold" fill="#333" class="plate-label">D</text><text x="60.66666666666666" y="226" text-anchor="middle" dominant-baseline="middle" font-size="12" font-weight="bold" fill="#333" class="plate-label">E</text><text x="60.66666666666666" y="263.33333333333337" text-anchor="middle" dominant-baseline="middle" font-size="12" font-weight="bold" fill="#333" class="plate-label">F</text></svg>