<svg xmlns="http://www.w3.org/2000/svg" class="plate-svg" viewBox="0 0 440 340" preserveAspectRatio="xMidYMid meet"><rect width="440" height="340" fill="#FFF"/><rect x="40" y="40" width="360" height="260" fill="none" stroke="#666" stroke-width="1" rx="5"/><circle cx="71.5" cy="75.5" r="9.5" fill="white" stroke="#333" stroke-width="2" class="svg-well" data-label="A1"/><text x="71.5" y="75.5" class="svg-well-label"/><circle cx="98.5" cy="75.5" r="9.5" fill="white" stroke="#333" stroke-width="2" class="svg-well" data-label="A2"/><text x="98.5" y="75.5" class="svg-well-label"/><circle cx="125.5" cy="75.5" r="9.5" fill="white" stroke="#333" stroke-width="2" class="svg-well" data-label="A3"/><text x="125.5" y="75.5" class="svg-well-label"/><circle cx="152.5" cy="75.5" r="9.5" fill="white" stroke="#333" stroke-width="2" class="svg-well" data-label="A4"/><text x="152.5" y="75.5" class="svg-well-label"/><circle cx="179.5" cy="75.5" r="9.5" fill="white" stroke="#333" stroke-width="2" class="svg-well" data-label="A5"/><text x="179.5" y="75.5" class="svg-well-label"/><circle cx="206.5" cy="75.5" r="9.5" fill="white" stroke="#333" stroke-width="2" class="svg-well" data-label="A6"/><text x="206.5" y="75.5" class="svg-well-label"/><circle cx="233.5" cy="75.5" r="9.5" fill="white" stroke="#333" stroke-width="2" class="svg-well" data-label="A7"/><text x="233.5" y="75.5" class="svg-well-label"/><circle cx="260.5" cy="75.5" r="9.5" fill="white" stroke="#333" stroke-width="2" class="svg-well" data-label="A8"/><text x="260.5" y="75.5" class="svg-well-label"/><circle cx="287.5" cy="75.5" r="9.5" fill="white" stroke="#333" stroke-width="2" class="svg-well" data-label="A9"/><text x="287.5" y="75.5" class="svg-well-label"/><circle cx="314.5" cy="75.5" r="9.5" fill="white" stroke="#333" stroke-width="2" class="svg-well" data-label="A10"/><text x="314.5" y="75.5" class="svg-well-label"/><circle cx="341.5" cy="75.5" r="9.5" fill="white" stroke="#333" stroke-width="2" class="svg-well" data-label="A11"/><text x="341.5" y="75.5" class="svg-well-label"/><circle cx="368.5" cy="75.5" r="9.5" fill="white" stroke="#333" stroke-width="2" class="svg-well" data-label="A12"/><text x="368.5" y="75.5" class="svg-well-label"/><circle cx="71.5" cy="102.5" r="9.5" fill="white" stroke="#333" stroke-width="2" class="svg-well" data-label="B1"/><text x="71.5" y="102.5" class="svg-well-label"/><circle cx="98.5" cy="102.5" r="9.5" fill="white" stroke="#333" stroke-width="2" class="svg-well" data-label="B2"/><text x="98.5" y="102.5" class="svg-well-label"/><circle cx="125.5" cy="102.5" r="9.5" fill="white" stroke="#333" stroke-width="2" class="svg-well" data-label="B3"/><text x="125.5" y="102.5" class="svg-well-label"/><circle cx="152.5" cy="102.5" r="9.5" fill="white" stroke="#333" stroke-width="2" class="svg-well" data-label="B4"/><text x="152.5" y="102.5" class="svg-well-label"/><circle cx="179.5" cy="102.5" r="9.5" fill="white" stroke="#333" stroke-width="2" class="svg-well" data-label="B5"/><text x="179.5" y="102.5" class="svg-well-label"/><circle cx="206.5" cy="102.5" r="9.5" fill="white" stroke="#333" stroke-width="2" class="svg-well" data-label="B6"/><text x="206.5" y="102.5" class="svg-well-label"/><circle cx="233.5" cy="102.5" r="9.5" fill="white" stroke="#333" stroke-width="2" class="svg-well" data-label="B7"/><text x="233.5" y="102.5" class="svg-well-label"/><circle cx="260.5" cy="102.5" r="9.5" fill="white" stroke="#333" stroke-width="2" class="svg-well" data-label="B8"/><text x="260.5" y="102.5" class="svg-well-label"/><circle cx="287.5" cy="102.5" r="9.5" fill="white" stroke="#333" stroke-width="2" class="svg-well" data-label="B9"/><text x="287.5" y="102.5" class="svg-well-label"/><circle cx="314.5" cy="102.5" r="9.5" fill="white" stroke="#333" stroke-width="2" class="svg-well" data-label="B10"/><text x="314.5" y="102.5" class="svg-well-label"/><circle cx="341.5" cy="102.5" r="9.5" fill="white" stroke="#333" stroke-width="2" class="svg-well" data-label="B11"/><text x="341.5" y="102.5" class="svg-well-label"/><circle cx="368.5" cy="102.5" r="9.5" fill="white" stroke="#333" stroke-width="2" class="svg-well" data-label="B12"/><text x="368.5" y="102.5" class="svg-well-label"/><circle cx="71.5" cy="129.5" r="9.5" fill="white" stroke="#333" stroke-width="2" class="svg-well" data-label="C1"/><text x="71.5" y="129.5" class="svg-well-label"/><circle cx="98.5" cy="129.5" r="9.5" fill="white" stroke="#333" stroke-width="2" class="svg-well" data-label="C2"/><text x="98.5" y="129.5" class="svg-well-label"/><circle cx="125.5" cy="129.5" r="9.5" fill="white" stroke="#333" stroke-width="2" class="svg-well" data-label="C3"/><text x="125.5" y="129.5" class="svg-well-label"/><circle cx="152.5" cy="129.5" r="9.5" fill="white" stroke="#333" stroke-width="2" class="svg-well" data-label="C4"/><text x="152.5" y="129.5" class="svg-well-label"/><circle cx="179.5" cy="129.5" r="9.5" fill="white" stroke="#333" stroke-width="2" class="svg-well" data-label="C5"/><text x="179.5" y="129.5" class="svg-well-label"/><circle cx="206.5" cy="129.5" r="9.5" fill="white" stroke="#333" stroke-width="2" class="svg-well" data-label="C6"/><text x="206.5" y="129.5" class="svg-well-label"/><circle cx="233.5" cy="129.5" r="9.5" fill="white" stroke="#333" stroke-width="2" class="svg-well" data-label="C7"/><text x="233.5" y="129.5" class="svg-well-label"/><circle cx="260.5" cy="129.5" r="9.5" fill="white" stroke="#333" stroke-width="2" class="svg-well" data-label="C8"/><text x="260.5" y="129.5" class="svg-well-label"/><circle cx="287.5" cy="129.5" r="9.5" fill="white" stroke="#333" stroke-width="2" class="svg-well" data-label="C9"/><text x="287.5" y="129.5" class="svg-well-label"/><circle cx="314.5" cy="129.5" r="9.5" fill="white" stroke="#333" stroke-width="2" class="svg-well" data-label="C10"/><text x="314.5" y="129.5" class="svg-well-label"/><circle cx="341.5" cy="129.5" r="9.5" fill="white" stroke="#333" stroke-width="2" class="svg-well" data-label="C11"/><text x="341.5" y="129.5" class="svg-well-label"/><circle cx="368.5" cy="129.5" r="9.5" fill="white" stroke="#333" stroke-width="2" class="svg-well" data-label="C12"/><text x="368.5" y="129.5" class="svg-well-label"/><circle cx="71.5" cy="156.5" r="9.5" fill="white" stroke="#333" stroke-width="2" class="svg-well" data-label="D1"/><text x="71.5" y="156.5" class="svg-well-label"/><circle cx="98.5" cy="156.5" r="9.5" fill="white" stroke="#333" stroke-width="2" class="svg-well" data-label="D2"/><text x="98.5" y="156.5" class="svg-well-label"/><circle cx="125.5" cy="156.5" r="9.5" fill="white" stroke="#333" stroke-width="2" class="svg-well" data-label="D3"/><text x="125.5" y="156.5" class="svg-well-label"/><circle cx="152.5" cy="156.5" r="9.5" fill="white" stroke="#333" stroke-width="2" class="svg-well" data-label="D4"/><text x="152.5" y="156.5" class="svg-well-label"/><circle cx="179.5" cy="156.5" r="9.5" fill="white" stroke="#333" stroke-width="2" class="svg-well" data-label="D5"/><text x="179.5" y="156.5" class="svg-well-label"/><circle cx="206.5" cy="156.5" r="9.5" fill="white" stroke="#333" stroke-width="2" class="svg-well" data-label="D6"/><text x="206.5" y="156.5" class="svg-well-label"/><circle cx="233.5" cy="156.5" r="9.5" fill="white" stroke="#333" stroke-width="2" class="svg-well" data-label="D7"/><text x="233.5" y="156.5" class="svg-well-label"/><circle cx="260.5" cy="156.5" r="9.5" fill="white" stroke="#333" stroke-width="2" class="svg-well" data-label="D8"/><text x="260.5" y="156.5" class="svg-well-label"/><circle cx="287.5" cy="156.5" r="9.5" fill="white" stroke="#333" stroke-width="2" class="svg-well" data-label="D9"/><text x="287.5" y="156.5" class="svg-well-label"/><circle cx="314.5" cy="156.5" r="9.5" fill="white" stroke="#333" stroke-width="2" class="svg-well" data-label="D10"/><text x="314.5" y="156.5" class="svg-well-label"/><circle cx="341.5" cy="156.5" r="9.5" fill="white" stroke="#333" stroke-width="2" class="svg-well" data-label="D11"/><text x="341.5" y="156.5" class="svg-well-label"/><circle cx="368.5" cy="156.5" r="9.5" fill="white" stroke="#333" stroke-width="2" class="svg-well" data-label="D12"/><text x="368.5" y="156.5" class="svg-well-label"/><circle cx="71.5" cy="183.5" r="9.5" fill="white" stroke="#333" stroke-width="2" class="svg-well" data-label="E1"/><text x="71.5" y="183.5" class="svg-well-label"/><circle cx="98.5" cy="183.5" r="9.5" fill="white" stroke="#333" stroke-width="2" class="svg-well" data-label="E2"/><text x="98.5" y="183.5" class="svg-well-label"/><circle cx="125.5" cy="183.5" r="9.5" fill="white" stroke="#333" stroke-width="2" class="svg-well" data-label="E3"/><text x="125.5" y="183.5" class="svg-well-label"/><circle cx="152.5" cy="183.5" r="9.5" fill="white" stroke="#333" stroke-width="2" class="svg-well" data-label="E4"/><text x="152.5" y="183.5" class="svg-well-label"/><circle cx="179.5" cy="183.5" r="9.5" fill="white" stroke="#333" stroke-width="2" class="svg-well" data-label="E5"/><text x="179.5" y="183.5" class="svg-well-label"/><circle cx="206.5" cy="183.5" r="9.5" fill="white" stroke="#333" stroke-width="2" class="svg-well" data-label="E6"/><text x="206.5" y="183.5" class="svg-well-label"/><circle cx="233.5" cy="183.5" r="9.5" fill="white" stroke="#333" stroke-width="2" class="svg-well" data-label="E7"/><text x="233.5" y="183.5" class="svg-well-label"/><circle cx="260.5" cy="183.5" r="9.5" fill="white" stroke="#333" stroke-width="2" class="svg-well" data-label="E8"/><text x="260.5" y="183.5" class="svg-well-label"/><circle cx="287.5" cy="183.5" r="9.5" fill="white" stroke="#333" stroke-width="2" class="svg-well" data-label="E9"/><text x="287.5" y="183.5" class="svg-well-label"/><circle cx="314.5" cy="183.5" r="9.5" fill="white" stroke="#333" stroke-width="2" class="svg-well" data-label="E10"/><text x="314.5" y="183.5" class="svg-well-label"/><circle cx="341.5" cy="183.5" r="9.5" fill="white" stroke="#333" stroke-width="2" class="svg-well" data-label="E11"/><text x="341.5" y="183.5" class="svg-well-label"/><circle cx="368.5" cy="183.5" r="9.5" fill="white" stroke="#333" stroke-width="2" class="svg-well" data-label="E12"/><text x="368.5" y="183.5" class="svg-well-label"/><circle cx="71.5" cy="210.5" r="9.5" fill="white" stroke="#333" stroke-width="2" class="svg-well" data-label="F1"/><text x="71.5" y="210.5" class="svg-well-label"/><circle cx="98.5" cy="210.5" r="9.5" fill="white" stroke="#333" stroke-width="2" class="svg-well" data-label="F2"/><text x="98.5" y="210.5" class="svg-well-label"/><circle cx="125.5" cy="210.5" r="9.5" fill="white" stroke="#333" stroke-width="2" class="svg-well" data-label="F3"/><text x="125.5" y="210.5" class="svg-well-label"/><circle cx="152.5" cy="210.5" r="9.5" fill="white" stroke="#333" stroke-width="2" class="svg-well" data-label="F4"/><text x="152.5" y="210.5" class="svg-well-label"/><circle cx="179.5" cy="210.5" r="9.5" fill="white" stroke="#333" stroke-width="2" class="svg-well" data-label="F5"/><text x="179.5" y="210.5" class="svg-well-label"/><circle cx="206.5" cy="210.5" r="9.5" fill="white" stroke="#333" stroke-width="2" class="svg-well" data-label="F6"/><text x="206.5" y="210.5" class="svg-well-label"/><circle cx="233.5" cy="210.5" r="9.5" fill="white" stroke="#333" stroke-width="2" class="svg-well" data-label="F7"/><text x="233.5" y="210.5" class="svg-well-label"/><circle cx="260.5" cy="210.5" r="9.5" fill="white" stroke="#333" stroke-width="2" class="svg-well" data-label="F8"/><text x="260.5" y="210.5" class="svg-well-label"/><circle cx="287.5" cy="210.5" r="9.5" fill="white" stroke="#333" stroke-width="2" class="svg-well" data-label="F9"/><text x="287.5" y="210.5" class="svg-well-label"/><circle cx="314.5" cy="210.5" r="9.5" fill="white" stroke="#333" stroke-width="2" class="svg-well" data-label="F10"/><text x="314.5" y="210.5" class="svg-well-label"/><circle cx="341.5" cy="210.5" r="9.5" fill="white" stroke="#333" stroke-width="2" class="svg-well" data-label="F11"/><text x="341.5" y="210.5" class="svg-well-label"/><circle cx="368.5" cy="210.5" r="9.5" fill="white" stroke="#333" stroke-width="2" class="svg-well" data-label="F12"/><text x="368.5" y="210.5" class="svg-well-label"/><circle cx="71.5" cy="237.5" r="9.5" fill="white" stroke="#333" stroke-width="2" class="svg-well" data-label="G1"/><text x="71.5" y="237.5" class="svg-well-label"/><circle cx="98.5" cy="237.5" r="9.5" fill="white" stroke="#333" stroke-width="2" class="svg-well" data-label="G2"/><text x="98.5" y="237.5" class="svg-well-label"/><circle cx="125.5" cy="237.5" r="9.5" fill="white" stroke="#333" stroke-width="2" class="svg-well" data-label="G3"/><text x="125.5" y="237.5" class="svg-well-label"/><circle cx="152.5" cy="237.5" r="9.5" fill="white" stroke="#333" stroke-width="2" class="svg-well" data-label="G4"/><text x="152.5" y="237.5" class="svg-well-label"/><circle cx="179.5" cy="237.5" r="9.5" fill="white" stroke="#333" stroke-width="2" class="svg-well" data-label="G5"/><text x="179.5" y="237.5" class="svg-well-label"/><circle cx="206.5" cy="237.5" r="9.5" fill="white" stroke="#333" stroke-width="2" class="svg-well" data-label="G6"/><text x="206.5" y="237.5" class="svg-well-label"/><circle cx="233.5" cy="237.5" r="9.5" fill="white" stroke="#333" stroke-width="2" class="svg-well" data-label="G7"/><text x="233.5" y="237.5" class="svg-well-label"/><circle cx="260.5" cy="237.5" r="9.5" fill="white" stroke="#333" stroke-width="2" class="svg-well" data-label="G8"/><text x="260.5" y="237.5" class="svg-well-label"/><circle cx="287.5" cy="237.5" r="9.5" fill="white" stroke="#333" stroke-width="2" class="svg-well" data-label="G9"/><text x="287.5" y="237.5" class="svg-well-label"/><circle cx="314.5" cy="237.5" r="9.5" fill="white" stroke="#333" stroke-width="2" class="svg-well" data-label="G10"/><text x="314.5" y="237.5" class="svg-well-label"/><circle cx="341.5" cy="237.5" r="9.5" fill="white" stroke="#333" stroke-width="2" class="svg-well" data-label="G11"/><text x="341.5" y="237.5" class="svg-well-label"/><circle cx="368.5" cy="237.5" r="9.5" fill="white" stroke="#333" stroke-width="2" class="svg-well" data-label="G12"/><text x="368.5" y="237.5" class="svg-well-label"/><circle cx="71.5" cy="264.5" r="9.5" fill="white" stroke="#333" stroke-width="2" class="svg-well" data-label="H1"/><text x="71.5" y="264.5" class="svg-well-label"/><circle cx="98.5" cy="264.5" r="9.5" fill="white" stroke="#333" stroke-width="2" class="svg-well" data-label="H2"/><text x="98.5" y="264.5" class="svg-well-label"/><circle cx="125.5" cy="264.5" r="9.5" fill="white" stroke="#333" stroke-width="2" class="svg-well" data-label="H3"/><text x="125.5" y="264.5" class="svg-well-label"/><circle cx="152.5" cy="264.5" r="9.5" fill="white" stroke="#333" stroke-width="2" class="svg-well" data-label="H4"/><text x="152.5" y="264.5" class="svg-well-label"/><circle cx="179.5" cy="264.5" r="9.5" fill="white" stroke="#333" stroke-width="2" class="svg-well" data-label="H5"/><text x="179.5" y="264.5" class="svg-well-label"/><circle cx="206.5" cy="264.5" r="9.5" fill="white" stroke="#333" stroke-width="2" class="svg-well" data-label="H6"/><text x="206.5" y="264.5" class="svg-well-label"/><circle cx="233.5" cy="264.5" r="9.5" fill="white" stroke="#333" stroke-width="2" class="svg-well" data-label="H7"/><text x="233.5" y="264.5" class="svg-well-label"/><circle cx="260.5" cy="264.5" r="9.5" fill="white" stroke="#333" stroke-width="2" class="svg-well" data-label="H8"/><text x="260.5" y="264.5" class="svg-well-label"/><circle cx="287.5" cy="264.5" r="9.5" fill="white" stroke="#333" stroke-width="2" class="svg-well" data-label="H9"/><text x="287.5" y="264.5" class="svg-well-label"/><circle cx="314.5" cy="264.5" r="9.5" fill="white" stroke="#333" stroke-width="2" class="svg-well" data-label="H10"/><text x="314.5" y="264.5" class="svg-well-label"/><circle cx="341.5" cy="264.5" r="9.5" fill="white" stroke="#333" stroke-width="2" class="svg-well" data-label="H11"/><text x="341.5" y="264.5" class="svg-well-label"/><circle cx="368.5" cy="264.5" r="9.5" fill="white" stroke="#333" stroke-width="2" class="svg-well" data-label="H12"/><text x="368.5" y="264.5" class="svg-well-label"/><text x="71.5" y="56" text-anchor="middle" font-size="12" font-weight="bold" fill="#333" class="plate-label">1</text><text x="98.5" y="56" text-anchor="middle" font-size="12" font-weight="bold" fill="#333" class="plate-label">2</text><text x="125.5" y="56" text-anchor="middle" font-size="12" font-weight="bold" fill="#333" class="plate-label">3</text><text x="152.5" y="56" text-anchor="middle" font-size="12" font-weight="bold" fill="#333" class="plate-label">4</text><text x="179.5" y="56" text-anchor="middle" font-size="12" font-weight="bold" fill="#333" class="plate-label">5</text><text x="206.5" y="56" text-anchor="middle" font-size="12" font-weight="bold" fill="#333" class="plate-label">6</text><text x="233.5" y="56" text-anchor="middle" font-size="12" font-weight="bold" fill="#333" class="plate-label">7</text><text x="260.5" y="56" text-anchor="middle" font-size="12" font-weight="bold" fill="#333" class="plate-label">8</text><text x="287.5" y="56" text-anchor="middle" font-size="12" font-weight="bold" fill="#333" class="plate-label">9</text><text x="314.5" y="56" text-anchor="middle" font-size="12" font-weight="bold" fill="#333" class="plate-label">10</text><text x="341.5" y="56" text-anchor="middle" font-size="12" font-weight="bold" fill="#333" class="plate-label">11</text><text x="368.5" y="56" text-anchor="middle" font-size="12" font-weight="bold" fill="#333" class="plate-label">12</text><text x="52" y="75.5" text-anchor="middle" dominant-baseline="middle" font-size="12" font-weight="bold" fill="#333" class="plate-label">A</text><text x="52" y="102.5" text-anchor="middle" dominant-baseline="middle" font-size="12" font-weight="bold" fill="#333" class="plate-label">B</text><text x="52" y="129.5" text-anchor="middle" dominant-baseline="middle" font-size="12" font-weight="bold" fill="#333" class="plate-label">C</text><text x="52" y="156.5" text-anchor="middle" dominant-baseline="middle" font-size="12" font-weight="bold" fill="#333" class="plate-label">D</text><text x="52" y="183.5" text-anchor="middle" dominant-baseline="middle" font-size="12" font-weight="bold" fill="#333" class="plate-label">E</text><text x="52" y="210.5" text-anchor="middle" dominant-baseline="middle" font-size="12" font-weight="bold" fill="#333" class="plate-label">F</text><text x="52" y="237.5" text-anchor="middle" dominant-baseline="middle" font-size="12" font-weight="bold" fill="#333" class="plate-label">G</text><text x="52" y="264.5" text-anchor="middle" dominant-baseline="middle" font-size="12" font-weight="bold" fill="#333" class="plate-label">H</text></svg>